<mxfile host="app.diagrams.net" agent="Mozilla/5.0 (X11; Linux x86_64) AppleWebKit/537.36 (KHTML, like Gecko) Chrome/128.0.0.0 Safari/537.36" version="24.7.16">
  <diagram id="R2lEEEUBdFMjLlhIrx00" name="Page-1">
    <mxGraphModel dx="441" dy="788" grid="1" gridSize="10" guides="1" tooltips="1" connect="1" arrows="1" fold="1" page="1" pageScale="1" pageWidth="850" pageHeight="1100" math="0" shadow="0" extFonts="Permanent Marker^https://fonts.googleapis.com/css?family=Permanent+Marker">
      <root>
        <mxCell id="0" />
        <mxCell id="1" parent="0" />
        <mxCell id="mPOZK82Od2rkhhYYzZMl-22" value="&lt;div style=&quot;text-align: right;&quot;&gt;TEMA&lt;/div&gt;" style="swimlane;fontStyle=0;childLayout=stackLayout;horizontal=1;startSize=30;horizontalStack=0;resizeParent=1;resizeParentMax=0;resizeLast=0;collapsible=1;marginBottom=0;whiteSpace=wrap;html=1;" vertex="1" parent="1">
          <mxGeometry x="210" y="20" width="170" height="90" as="geometry" />
        </mxCell>
        <mxCell id="mPOZK82Od2rkhhYYzZMl-23" value="&lt;u&gt;titol&lt;/u&gt;" style="text;strokeColor=none;fillColor=none;align=left;verticalAlign=middle;spacingLeft=4;spacingRight=4;overflow=hidden;points=[[0,0.5],[1,0.5]];portConstraint=eastwest;rotatable=0;whiteSpace=wrap;html=1;" vertex="1" parent="mPOZK82Od2rkhhYYzZMl-22">
          <mxGeometry y="30" width="170" height="30" as="geometry" />
        </mxCell>
        <mxCell id="mPOZK82Od2rkhhYYzZMl-24" value="autor" style="text;strokeColor=none;fillColor=none;align=left;verticalAlign=middle;spacingLeft=4;spacingRight=4;overflow=hidden;points=[[0,0.5],[1,0.5]];portConstraint=eastwest;rotatable=0;whiteSpace=wrap;html=1;" vertex="1" parent="mPOZK82Od2rkhhYYzZMl-22">
          <mxGeometry y="60" width="170" height="30" as="geometry" />
        </mxCell>
        <mxCell id="mPOZK82Od2rkhhYYzZMl-26" value="LLIBRE" style="swimlane;fontStyle=0;childLayout=stackLayout;horizontal=1;startSize=30;horizontalStack=0;resizeParent=1;resizeParentMax=0;resizeLast=0;collapsible=1;marginBottom=0;whiteSpace=wrap;html=1;" vertex="1" parent="1">
          <mxGeometry x="200" y="280" width="190" height="120" as="geometry" />
        </mxCell>
        <mxCell id="mPOZK82Od2rkhhYYzZMl-27" value="&lt;b&gt;&lt;u&gt;titol&lt;/u&gt;&lt;/b&gt;" style="text;strokeColor=none;fillColor=none;align=left;verticalAlign=middle;spacingLeft=4;spacingRight=4;overflow=hidden;points=[[0,0.5],[1,0.5]];portConstraint=eastwest;rotatable=0;whiteSpace=wrap;html=1;" vertex="1" parent="mPOZK82Od2rkhhYYzZMl-26">
          <mxGeometry y="30" width="190" height="30" as="geometry" />
        </mxCell>
        <mxCell id="mPOZK82Od2rkhhYYzZMl-28" value="autor" style="text;strokeColor=none;fillColor=none;align=left;verticalAlign=middle;spacingLeft=4;spacingRight=4;overflow=hidden;points=[[0,0.5],[1,0.5]];portConstraint=eastwest;rotatable=0;whiteSpace=wrap;html=1;" vertex="1" parent="mPOZK82Od2rkhhYYzZMl-26">
          <mxGeometry y="60" width="190" height="30" as="geometry" />
        </mxCell>
        <mxCell id="mPOZK82Od2rkhhYYzZMl-29" value="num_exemplars" style="text;strokeColor=none;fillColor=none;align=left;verticalAlign=middle;spacingLeft=4;spacingRight=4;overflow=hidden;points=[[0,0.5],[1,0.5]];portConstraint=eastwest;rotatable=0;whiteSpace=wrap;html=1;" vertex="1" parent="mPOZK82Od2rkhhYYzZMl-26">
          <mxGeometry y="90" width="190" height="30" as="geometry" />
        </mxCell>
        <mxCell id="mPOZK82Od2rkhhYYzZMl-30" value="SOCI" style="swimlane;fontStyle=0;childLayout=stackLayout;horizontal=1;startSize=30;horizontalStack=0;resizeParent=1;resizeParentMax=0;resizeLast=0;collapsible=1;marginBottom=0;whiteSpace=wrap;html=1;" vertex="1" parent="1">
          <mxGeometry x="250" y="660" width="190" height="120" as="geometry" />
        </mxCell>
        <mxCell id="mPOZK82Od2rkhhYYzZMl-31" value="&lt;u&gt;&lt;b&gt;num_soci&lt;/b&gt;&lt;/u&gt;" style="text;strokeColor=none;fillColor=none;align=left;verticalAlign=middle;spacingLeft=4;spacingRight=4;overflow=hidden;points=[[0,0.5],[1,0.5]];portConstraint=eastwest;rotatable=0;whiteSpace=wrap;html=1;" vertex="1" parent="mPOZK82Od2rkhhYYzZMl-30">
          <mxGeometry y="30" width="190" height="30" as="geometry" />
        </mxCell>
        <mxCell id="mPOZK82Od2rkhhYYzZMl-32" value="DNI" style="text;strokeColor=none;fillColor=none;align=left;verticalAlign=middle;spacingLeft=4;spacingRight=4;overflow=hidden;points=[[0,0.5],[1,0.5]];portConstraint=eastwest;rotatable=0;whiteSpace=wrap;html=1;" vertex="1" parent="mPOZK82Od2rkhhYYzZMl-30">
          <mxGeometry y="60" width="190" height="30" as="geometry" />
        </mxCell>
        <mxCell id="mPOZK82Od2rkhhYYzZMl-33" value="Nom" style="text;strokeColor=none;fillColor=none;align=left;verticalAlign=middle;spacingLeft=4;spacingRight=4;overflow=hidden;points=[[0,0.5],[1,0.5]];portConstraint=eastwest;rotatable=0;whiteSpace=wrap;html=1;" vertex="1" parent="mPOZK82Od2rkhhYYzZMl-30">
          <mxGeometry y="90" width="190" height="30" as="geometry" />
        </mxCell>
        <mxCell id="mPOZK82Od2rkhhYYzZMl-34" value="PRÉSTEC" style="rhombus;whiteSpace=wrap;html=1;" vertex="1" parent="1">
          <mxGeometry x="310" y="180" width="220" height="80" as="geometry" />
        </mxCell>
        <mxCell id="mPOZK82Od2rkhhYYzZMl-35" value="CLASSIFICACIÓ" style="rhombus;whiteSpace=wrap;html=1;" vertex="1" parent="1">
          <mxGeometry x="230" y="490" width="220" height="80" as="geometry" />
        </mxCell>
        <mxCell id="mPOZK82Od2rkhhYYzZMl-36" value="" style="endArrow=none;html=1;rounded=0;exitX=1;exitY=0;exitDx=0;exitDy=0;entryX=0;entryY=0.5;entryDx=0;entryDy=0;" edge="1" parent="1" source="mPOZK82Od2rkhhYYzZMl-34" target="mPOZK82Od2rkhhYYzZMl-37">
          <mxGeometry width="50" height="50" relative="1" as="geometry">
            <mxPoint x="510" y="170" as="sourcePoint" />
            <mxPoint x="560" y="120" as="targetPoint" />
          </mxGeometry>
        </mxCell>
        <mxCell id="mPOZK82Od2rkhhYYzZMl-37" value="Data_préstec" style="ellipse;whiteSpace=wrap;html=1;" vertex="1" parent="1">
          <mxGeometry x="570" y="70" width="170" height="80" as="geometry" />
        </mxCell>
        <mxCell id="mPOZK82Od2rkhhYYzZMl-38" value="" style="endArrow=none;html=1;rounded=0;exitX=1;exitY=1;exitDx=0;exitDy=0;entryX=0;entryY=0.5;entryDx=0;entryDy=0;" edge="1" parent="1" source="mPOZK82Od2rkhhYYzZMl-34" target="mPOZK82Od2rkhhYYzZMl-39">
          <mxGeometry width="50" height="50" relative="1" as="geometry">
            <mxPoint x="485" y="210" as="sourcePoint" />
            <mxPoint x="570" y="260" as="targetPoint" />
          </mxGeometry>
        </mxCell>
        <mxCell id="mPOZK82Od2rkhhYYzZMl-39" value="Data_retorn" style="ellipse;whiteSpace=wrap;html=1;" vertex="1" parent="1">
          <mxGeometry x="570" y="210" width="170" height="80" as="geometry" />
        </mxCell>
        <mxCell id="mPOZK82Od2rkhhYYzZMl-40" value="" style="endArrow=classic;startArrow=classic;html=1;rounded=0;entryX=0;entryY=0;entryDx=0;entryDy=0;exitX=0.463;exitY=1.133;exitDx=0;exitDy=0;exitPerimeter=0;" edge="1" parent="1" source="mPOZK82Od2rkhhYYzZMl-29" target="mPOZK82Od2rkhhYYzZMl-35">
          <mxGeometry width="50" height="50" relative="1" as="geometry">
            <mxPoint x="300" y="400" as="sourcePoint" />
            <mxPoint x="350" y="350" as="targetPoint" />
          </mxGeometry>
        </mxCell>
        <mxCell id="mPOZK82Od2rkhhYYzZMl-41" value="" style="endArrow=none;html=1;rounded=0;exitX=0.494;exitY=0.9;exitDx=0;exitDy=0;exitPerimeter=0;entryX=0.336;entryY=0.138;entryDx=0;entryDy=0;entryPerimeter=0;" edge="1" parent="1" source="mPOZK82Od2rkhhYYzZMl-24" target="mPOZK82Od2rkhhYYzZMl-34">
          <mxGeometry width="50" height="50" relative="1" as="geometry">
            <mxPoint x="260" y="240" as="sourcePoint" />
            <mxPoint x="310" y="190" as="targetPoint" />
          </mxGeometry>
        </mxCell>
        <mxCell id="mPOZK82Od2rkhhYYzZMl-42" value="" style="endArrow=none;html=1;rounded=0;exitX=0;exitY=1;exitDx=0;exitDy=0;entryX=0.5;entryY=0;entryDx=0;entryDy=0;" edge="1" parent="1" source="mPOZK82Od2rkhhYYzZMl-34" target="mPOZK82Od2rkhhYYzZMl-26">
          <mxGeometry width="50" height="50" relative="1" as="geometry">
            <mxPoint x="304" y="117" as="sourcePoint" />
            <mxPoint x="394" y="201" as="targetPoint" />
          </mxGeometry>
        </mxCell>
        <mxCell id="mPOZK82Od2rkhhYYzZMl-43" value="&lt;font style=&quot;font-size: 23px;&quot;&gt;M&lt;/font&gt;" style="rounded=1;whiteSpace=wrap;html=1;" vertex="1" parent="1">
          <mxGeometry x="370" y="640" width="50" height="20" as="geometry" />
        </mxCell>
        <mxCell id="mPOZK82Od2rkhhYYzZMl-44" value="" style="endArrow=none;html=1;rounded=0;exitX=0.574;exitY=0.033;exitDx=0;exitDy=0;exitPerimeter=0;entryX=0.5;entryY=1;entryDx=0;entryDy=0;" edge="1" parent="1" source="mPOZK82Od2rkhhYYzZMl-30" target="mPOZK82Od2rkhhYYzZMl-35">
          <mxGeometry width="50" height="50" relative="1" as="geometry">
            <mxPoint x="370" y="670" as="sourcePoint" />
            <mxPoint x="420" y="620" as="targetPoint" />
          </mxGeometry>
        </mxCell>
        <mxCell id="mPOZK82Od2rkhhYYzZMl-45" value="&lt;font style=&quot;font-size: 23px;&quot;&gt;M&lt;/font&gt;" style="rounded=1;whiteSpace=wrap;html=1;" vertex="1" parent="1">
          <mxGeometry x="240" y="110" width="50" height="20" as="geometry" />
        </mxCell>
        <mxCell id="mPOZK82Od2rkhhYYzZMl-46" value="&lt;font style=&quot;font-size: 23px;&quot;&gt;N&lt;/font&gt;" style="rounded=1;whiteSpace=wrap;html=1;" vertex="1" parent="1">
          <mxGeometry x="250" y="260" width="50" height="20" as="geometry" />
        </mxCell>
        <mxCell id="mPOZK82Od2rkhhYYzZMl-47" value="&lt;font style=&quot;font-size: 23px;&quot;&gt;N&lt;/font&gt;" style="rounded=1;whiteSpace=wrap;html=1;" vertex="1" parent="1">
          <mxGeometry x="230" y="420" width="50" height="20" as="geometry" />
        </mxCell>
      </root>
    </mxGraphModel>
  </diagram>
</mxfile>
